<svg width="70" height="70" viewBox="0 0 70 70" fill="none" xmlns="http://www.w3.org/2000/svg">
<rect x="-8" y="34.8867" width="60.6536" height="60.6536" rx="20" transform="rotate(-45 -8 34.8867)" fill="#FFD600"/>
<g clip-path="url(#clip0_954_63)">
<g clip-path="url(#clip1_954_63)">
<path d="M26.7629 32.2049L31.0759 32.1473L31.3972 32.231C32.9103 33.1036 34.2645 34.1928 35.4373 35.4873C36.9849 32.9974 38.633 30.7114 40.3747 28.609C42.2823 26.3047 44.3066 24.2149 46.4328 22.3072L46.854 22.1455H51.56L50.6115 23.1995C47.6949 26.4404 45.0491 29.7896 42.6584 33.2435C40.2664 36.701 38.1282 40.2696 36.227 43.9429L35.6356 45.0848L35.0914 43.9218C33.1065 39.6613 30.308 36.033 26.4113 33.3574L26.7629 32.2049V32.2049ZM34.9986 17.1094C37.7021 17.1094 40.355 17.7113 42.792 18.8814C42.9488 18.9566 43.0163 19.1472 42.9411 19.3047C42.9193 19.3497 42.8884 19.3876 42.8511 19.4172L40.2116 21.5773C40.1667 21.6149 40.1123 21.6395 40.0544 21.6484C39.9966 21.6573 39.9373 21.6502 39.8832 21.6279C38.318 21.0612 36.6664 20.7764 35.0021 20.7764C31.1862 20.7764 27.5645 22.2734 24.8673 24.9736C22.168 27.6744 20.6696 31.2901 20.6696 35.109C20.6696 38.9258 22.1666 42.545 24.8666 45.2438C27.568 47.9439 31.1827 49.4424 35.0021 49.4424C38.8145 49.4424 42.4405 47.9439 45.1355 45.2445C47.8362 42.545 49.3332 38.9272 49.3332 35.109C49.3332 34.1808 49.2481 33.2674 49.0695 32.3554C49.0505 32.2563 49.0801 32.1571 49.142 32.0861L51.47 29.1356C51.5797 28.9992 51.7808 28.9788 51.9172 29.0885C51.9685 29.13 52.003 29.1841 52.0212 29.2432C52.6716 31.1298 53 33.1141 53 35.109C53 39.8927 51.1107 44.4534 47.728 47.8363C44.3459 51.2179 39.7841 53.1094 35.0021 53.1094C30.2188 53.1094 25.6583 51.2186 22.2755 47.8363L22.2629 47.8223C18.8851 44.4393 17 39.8898 17 35.109C17 30.3261 18.8893 25.7654 22.272 22.3824L22.2861 22.3698C25.6688 18.9946 30.2202 17.1094 34.9986 17.1094Z" fill="#575757"/>
</g>
</g>
<defs>
<clipPath id="clip0_954_63">
<rect width="36" height="36" fill="white" transform="translate(17 16.8867)"/>
</clipPath>
<clipPath id="clip1_954_63">
<rect width="36" height="36" fill="white" transform="matrix(-1 0 0 1 53 17)"/>
</clipPath>
</defs>
</svg>
